<?xml version="1.0" standalone="no"?>
<!DOCTYPE svg PUBLIC "-//W3C//DTD SVG 20010904//EN"
 "http://www.w3.org/TR/2001/REC-SVG-20010904/DTD/svg10.dtd">
<svg version="1.0" xmlns="http://www.w3.org/2000/svg"
 width="200.000000pt" height="200.000000pt" viewBox="0 0 200.000000 200.000000"
 preserveAspectRatio="xMidYMid meet">
<metadata>
Created by potrace 1.14, written by Peter Selinger 2001-2017
</metadata>
<g transform="translate(0.000000,200.000000) scale(0.100000,-0.100000)"
fill="#000000" stroke="none">
<path d="M895 1904 c-70 -11 -134 -25 -196 -46 l-67 -21 28 -23 c15 -13 37
-24 48 -24 30 0 82 -48 82 -75 0 -22 1 -22 37 -10 49 17 90 4 130 -40 l31 -37
42 41 c70 68 148 58 196 -25 11 -18 14 -16 57 24 37 33 54 42 82 42 68 0 115
-43 115 -104 0 -14 15 -39 35 -59 25 -25 35 -44 35 -66 0 -17 5 -31 11 -31 27
0 81 -35 94 -61 21 -40 19 -92 -6 -123 l-20 -26 -348 0 c-191 0 -483 3 -649 7
-278 6 -302 8 -307 24 -9 28 22 78 53 85 59 12 72 22 72 55 0 37 47 89 81 89
12 0 37 15 56 33 18 17 44 42 59 55 l26 23 -26 20 c-13 11 -28 30 -32 42 -3
12 -20 33 -36 47 -16 14 -30 35 -31 48 -1 12 -4 22 -7 22 -3 0 -30 -17 -60
-37 -323 -216 -482 -585 -415 -968 32 -179 116 -342 251 -484 47 -50 89 -91
93 -91 3 0 17 19 29 42 l24 43 -56 402 c-31 221 -56 409 -56 418 0 13 11 15
62 13 l63 -3 11 -90 c6 -49 24 -201 40 -338 15 -136 31 -244 36 -239 4 4 28
40 52 80 l44 71 -20 256 c-12 140 -19 257 -17 259 2 2 34 6 71 8 l67 4 7 -56
c4 -30 10 -102 13 -160 l6 -105 65 105 c35 58 71 119 80 135 43 82 60 94 96
70 29 -19 30 -38 3 -81 -24 -39 -14 -44 25 -13 l28 22 -6 -364 c-4 -200 -9
-436 -12 -523 l-6 -159 58 7 c32 4 59 8 60 9 8 9 20 404 13 412 -15 16 -11
196 5 214 10 12 17 73 25 224 6 114 14 221 18 237 5 30 6 30 74 30 l69 0 0
-32 c0 -18 -7 -117 -16 -220 -8 -103 -14 -198 -12 -211 3 -19 10 -15 66 43 34
36 64 74 66 85 3 11 12 81 21 155 24 198 15 180 85 180 56 0 60 -2 60 -22 0
-13 -20 -165 -44 -338 -64 -447 -84 -604 -80 -609 7 -7 101 70 160 131 114
119 192 259 236 419 32 119 32 356 0 474 -95 347 -364 607 -712 690 -66 15
-260 27 -315 19z"/>
<path d="M853 761 l-62 -103 16 -316 c8 -175 16 -318 17 -319 1 -1 27 -5 57
-9 l56 -6 -5 338 c-2 187 -7 379 -10 428 l-7 89 -62 -102z"/>
<path d="M616 374 l-47 -76 11 -97 c7 -53 14 -99 16 -103 7 -11 94 -41 100
-35 6 6 -22 377 -29 384 -3 2 -26 -30 -51 -73z"/>
<path d="M1326 398 c-9 -42 -28 -330 -22 -335 3 -3 27 3 53 14 54 22 55 25 67
183 l7 85 -35 38 c-40 42 -63 47 -70 15z"/>
</g>
</svg>
